<?xml version="1.0" standalone="no"?>
<!DOCTYPE svg PUBLIC "-//W3C//DTD SVG 20010904//EN"
 "http://www.w3.org/TR/2001/REC-SVG-20010904/DTD/svg10.dtd">
<svg version="1.0" xmlns="http://www.w3.org/2000/svg"
 width="1024.000000pt" height="1024.000000pt" viewBox="0 0 1024.000000 1024.000000"
 preserveAspectRatio="xMidYMid meet">

<g transform="translate(0.000000,1024.000000) scale(0.100000,-0.100000)"
fill="#000000" stroke="none">
<path d="M0 5120 l0 -5120 5120 0 5120 0 0 5120 0 5120 -5120 0 -5120 0 0
-5120z m4650 4175 c80 -42 79 -139 -2 -168 -17 -6 -18 -91 -20 -1569 -1 -860
-3 -1583 -4 -1608 -1 -41 -3 -45 -25 -45 l-24 0 -3 1611 -2 1611 -30 26 c-43
39 -41 79 6 123 39 38 61 41 104 19z m1139 1 c67 -35 82 -124 26 -160 l-30
-20 3 -1570 c2 -956 -1 -1576 -7 -1585 -5 -8 -16 -11 -25 -8 -15 6 -16 115
-16 1194 -1 653 -3 1363 -6 1576 l-6 388 -35 33 c-28 25 -36 40 -35 66 1 34
32 76 67 90 28 12 33 12 64 -4z m595 -267 c25 -28 46 -61 46 -73 0 -19 -67
-124 -80 -125 -3 -1 -29 20 -59 46 -48 42 -53 49 -48 79 7 40 62 124 82 124 7
0 34 -23 59 -51z m-2355 9 c43 -38 93 -98 89 -109 -2 -4 -28 -27 -59 -52 l-56
-46 8 -43 c9 -49 12 -961 3 -996 -5 -16 -13 -22 -28 -20 l-21 3 -2 538 -2 538
-47 42 c-44 40 -46 44 -34 67 23 44 81 110 97 110 8 0 32 -14 52 -32z m3625
-110 c16 -23 21 -64 10 -92 -8 -21 -67 -21 -88 0 -35 35 -5 114 43 114 11 0
27 -10 35 -22z m-4940 -49 c9 -91 7 -637 -2 -643 -5 -3 -15 11 -22 32 -19 56
-27 651 -8 663 23 15 25 11 32 -52z m3952 49 c4 -7 8 -278 9 -602 0 -325 4
-599 9 -608 7 -15 3 -18 -26 -18 l-35 0 -6 107 c-4 58 -7 337 -7 620 l0 513
24 0 c14 0 28 -5 32 -12z m-4188 -14 c16 -11 22 -25 22 -55 0 -46 -10 -53 -65
-41 -37 7 -40 11 -43 44 -2 28 2 40 20 52 28 20 38 20 66 0z m4424 -3 c10 -17
13 -17 27 -4 11 11 26 14 59 9 49 -7 72 -20 72 -42 0 -11 -27 -14 -130 -16
-71 -1 -142 -2 -157 -2 -24 -1 -29 4 -31 28 -5 38 10 46 85 46 51 0 65 -4 75
-19z m-4057 -31 c0 -29 -4 -36 -22 -38 -21 -3 -23 1 -23 38 0 37 2 41 23 38
18 -2 22 -9 22 -38z m633 31 c62 -5 119 -14 125 -20 8 -8 7 -11 -3 -11 -11 -1
-10 -4 4 -15 16 -12 -3 -14 -148 -14 -127 -1 -166 2 -166 11 0 10 -2 10 -8 1
-9 -14 -309 -30 -365 -19 -33 6 -37 10 -37 36 l0 30 130 0 c128 0 130 0 131
-22 l2 -23 4 22 c3 16 13 23 36 26 57 7 179 6 295 -2z m4595 -33 c17 -22 18
-32 10 -51 -12 -27 -60 -40 -87 -25 -19 11 -22 78 -4 96 20 20 59 10 81 -20z
m-5745 -33 c7 -14 12 -28 12 -30 0 -12 -45 -3 -62 12 -27 24 -23 43 10 43 21
0 32 -7 40 -25z m2930 -80 c48 -47 94 -92 102 -101 8 -9 43 -48 78 -86 l63
-69 -28 -33 c-15 -18 -40 -41 -54 -50 -26 -15 -27 -15 -75 38 -75 81 -134 157
-134 170 0 7 6 18 13 25 10 11 8 11 -11 1 -34 -17 -60 -7 -116 45 l-49 45 44
49 c24 27 52 49 62 50 10 1 57 -36 105 -84z m365 -1415 c2 -1323 1 -1445 -14
-1448 -12 -2 -18 7 -22 36 -4 21 -7 641 -7 1377 -1 1021 2 1360 12 1432 10 73
14 88 21 71 5 -13 10 -667 10 -1468z m-2777 1433 c8 -29 -2 -657 -13 -885 -3
-76 -10 -138 -15 -138 -26 0 -30 70 -28 470 1 228 5 457 7 507 5 87 7 92 24
82 10 -5 22 -22 25 -36z m3526 -19 c11 -42 23 -858 13 -929 -5 -33 -10 -52
-12 -42 -3 9 -8 15 -13 12 -4 -3 -9 75 -9 173 -2 212 -19 678 -27 744 -4 26
-4 54 -1 62 9 24 40 11 49 -20z m412 20 c3 -9 6 -163 6 -344 l0 -327 -23 0
-24 0 -6 335 c-3 185 -4 339 -1 344 9 14 42 9 48 -8z m-2324 -9 c68 -35 79
-102 27 -158 l-34 -35 9 -68 c11 -88 0 -2606 -12 -2618 -5 -5 -16 -6 -24 -3
-14 6 -16 91 -16 829 -1 1232 -9 1861 -26 1871 -7 4 -27 19 -43 33 -44 37 -44
94 0 135 35 33 74 37 119 14z m2554 -1 c37 -37 8 -50 -98 -46 l-76 4 0 29 0
29 79 0 c59 0 84 -4 95 -16z m-3874 -28 l0 -34 -57 -1 c-31 0 -62 4 -69 10 -8
7 -14 7 -19 -1 -8 -13 -62 -13 -70 1 -4 5 -4 21 -1 35 6 24 8 24 111 24 l105
0 0 -34z m120 -1 c0 -35 0 -35 -45 -35 -45 0 -45 0 -45 35 0 35 0 35 45 35 45
0 45 0 45 -35z m128 -2 c3 -33 3 -33 -40 -33 -47 0 -68 13 -68 41 0 20 21 28
70 26 32 -2 35 -5 38 -34z m2631 11 c40 -51 17 -141 -39 -159 -16 -5 -20 -15
-20 -54 0 -26 -3 -96 -7 -154 -5 -95 -8 -107 -25 -107 -17 0 -18 11 -18 159
l0 159 -35 21 c-20 11 -38 27 -41 34 -7 19 10 58 41 95 23 28 33 32 75 32 41
0 52 -4 69 -26z m1323 -54 c37 -77 62 -207 53 -283 -11 -100 -70 -267 -94
-267 -3 0 -11 12 -18 26 -10 21 -8 35 12 89 52 137 52 229 2 404 -13 44 -21
83 -18 86 15 15 38 -6 63 -55z m-2245 -42 l35 -36 -20 -29 c-11 -15 -34 -41
-51 -57 l-31 -30 -31 23 -30 23 26 -40 c14 -22 49 -59 76 -82 54 -45 57 -54
32 -84 -14 -16 -12 -15 9 3 l27 23 61 -53 62 -54 -52 -47 c-28 -27 -55 -48
-59 -48 -3 0 -31 25 -61 55 l-54 54 20 23 c14 16 14 19 2 10 -30 -24 -55 -9
-157 92 l-100 98 116 123 117 124 13 -27 c8 -15 30 -44 50 -64z m2728 62 c3
-5 3 -21 -1 -35 l-6 -25 -119 0 c-107 0 -119 2 -129 19 -15 29 -12 39 13 44
45 9 236 7 242 -3z m-909 -213 c0 -89 6 -188 13 -221 14 -63 8 -79 -27 -70
-15 5 -25 18 -33 47 -12 47 -17 376 -6 395 5 6 18 12 30 12 22 0 22 -2 23
-163z m-3782 134 c4 -5 61 -10 129 -11 67 -1 133 -3 147 -5 14 -2 44 -4 68 -4
35 -1 42 -4 42 -21 0 -19 -7 -20 -245 -20 l-245 0 0 29 c0 20 6 31 18 34 31 8
81 7 86 -2z m-124 -36 c0 -32 -3 -35 -29 -35 -17 0 -31 6 -35 16 -9 24 12 54
39 54 22 0 25 -4 25 -35z m4228 -7 c34 -138 18 -297 -30 -298 -10 0 -11 324
-1 333 14 14 21 6 31 -35z m-107 -10 c18 -66 18 -216 -1 -228 -8 -5 -19 -8
-25 -7 -11 4 -19 217 -10 255 8 34 23 26 36 -20z m867 -6 c-25 -27 -75 -94
-112 -149 -36 -56 -81 -113 -99 -128 -52 -43 -129 -109 -144 -123 -7 -7 -13
-10 -13 -6 0 4 -12 -6 -27 -20 -28 -28 -63 -51 -63 -41 0 12 113 124 123 122
6 -1 11 3 12 8 0 12 58 86 97 124 14 14 47 54 72 88 25 34 54 66 64 72 11 6
30 20 43 31 99 84 110 89 47 22z m340 -4 c-18 -24 -60 -73 -94 -109 -158 -173
-151 -184 19 -27 55 51 104 92 108 91 3 -1 17 9 29 22 13 14 28 25 32 25 5 0
2 -7 -6 -16 -9 -8 -36 -47 -61 -86 -25 -38 -75 -99 -110 -135 -117 -116 -65
-106 90 17 28 22 54 40 60 40 5 0 0 -6 -11 -14 -24 -17 -85 -94 -64 -81 8 5
34 10 57 11 36 3 54 12 115 64 40 34 82 66 92 72 18 10 18 9 -1 -18 -36 -53
-37 -55 -9 -48 32 8 33 -2 4 -35 -19 -21 -19 -23 -3 -10 38 29 77 51 74 41 -6
-17 -163 -177 -171 -174 -5 1 -8 -6 -8 -17 0 -10 -3 -40 -6 -67 l-6 -49 22 40
c23 40 67 85 84 85 6 0 -3 -14 -20 -31 l-29 -32 28 7 28 7 -40 -60 c-43 -63
-49 -77 -28 -65 8 5 7 2 -2 -9 -8 -10 -16 -15 -19 -12 -4 4 -32 -40 -32 -51 0
-1 33 28 73 65 39 38 99 91 132 118 33 28 76 67 95 88 19 20 49 46 65 58 22
16 16 4 -25 -43 -65 -77 -191 -220 -239 -272 -18 -21 -41 -48 -49 -60 -15 -23
-15 -23 4 -5 22 18 54 23 54 8 0 -4 29 20 65 55 82 80 107 84 34 7 -92 -98
-99 -106 -143 -168 -77 -110 -106 -132 -106 -80 0 29 -15 33 -29 8 -12 -22
-29 -9 -71 55 -25 37 -30 56 -30 103 0 32 -4 60 -9 63 -4 3 -28 -7 -52 -23
-40 -25 -435 -391 -737 -683 -67 -65 -124 -118 -127 -118 -3 0 -5 9 -5 19 0
25 71 114 218 272 64 69 164 179 222 245 58 65 154 168 214 228 97 99 146 158
146 178 0 4 -23 10 -51 14 -62 8 -105 36 -143 93 l-29 44 24 20 c50 40 198
176 299 274 58 57 107 103 108 103 2 0 -11 -19 -30 -42z m-1310 -109 c-3 -96
-4 -104 -23 -104 -19 0 -20 8 -23 107 -2 95 -1 107 15 110 10 3 22 2 26 -2 4
-4 6 -54 5 -111z m-4494 82 c10 -11 20 -34 23 -53 2 -18 13 -42 24 -54 40 -43
16 -34 -42 17 -68 59 -77 73 -59 94 17 20 33 19 54 -4z m5126 4 c6 -8 10 -22
8 -32 -5 -25 -76 -25 -92 0 -21 35 56 65 84 32z m-4560 -64 c18 -34 12 -41
-37 -41 -80 0 -124 11 -121 28 4 19 37 30 100 31 37 1 50 -3 58 -18z m289 10
c8 -5 11 -16 8 -25 -5 -12 -20 -16 -62 -16 -48 0 -55 3 -55 19 0 16 8 21 43
24 23 2 44 4 47 5 3 1 11 -2 19 -7z m133 -16 c-4 -23 -9 -25 -58 -25 -51 0
-54 1 -54 25 0 24 3 25 59 25 57 0 58 -1 53 -25z m142 5 c18 -18 -8 -30 -65
-30 -57 0 -59 1 -59 26 0 25 1 25 58 19 31 -4 61 -11 66 -15z m204 8 c17 -17
15 -53 -3 -68 -34 -28 -98 22 -82 64 8 19 67 22 85 4z m-608 -20 c0 -22 -3
-23 -60 -20 -51 3 -60 7 -60 23 0 17 8 19 60 19 56 0 60 -2 60 -22z m4864 10
c-17 -29 -87 -116 -124 -155 -22 -23 -40 -49 -40 -58 0 -10 -5 -15 -13 -12 -7
3 -18 -3 -24 -12 -19 -30 -93 -84 -93 -68 0 18 97 147 112 147 7 0 6 -6 -2
-17 -7 -10 5 2 26 27 50 59 151 160 159 160 3 0 3 -6 -1 -12z m-2764 -109 c0
-8 -17 -34 -39 -59 -37 -43 -39 -44 -62 -28 -46 31 -89 75 -89 92 0 9 20 36
44 60 l44 44 51 -48 c28 -26 51 -54 51 -61z m-3318 65 c34 -21 97 -56 138 -79
188 -105 213 -130 190 -184 -15 -38 -55 -59 -141 -73 -41 -6 -78 -15 -83 -19
-12 -10 7 -35 121 -157 55 -59 142 -156 193 -215 51 -59 180 -201 287 -315
200 -212 230 -248 219 -259 -15 -15 -69 31 -361 310 -171 162 -359 337 -420
389 -60 52 -116 102 -124 111 -23 28 -31 19 -31 -35 0 -63 -25 -122 -69 -162
-35 -34 -43 -30 -65 29 -16 43 -19 33 -16 -42 1 -24 -2 -43 -7 -42 -7 0 -163
186 -199 237 -31 45 -8 30 71 -44 89 -83 115 -102 115 -82 0 19 -88 129 -213
268 -60 66 -102 120 -94 120 19 0 102 -65 180 -139 41 -40 69 -58 95 -62 20
-4 38 -6 39 -5 2 2 -4 49 -11 106 -17 114 -9 101 -139 230 -54 54 -75 82 -71
93 3 9 9 16 12 15 21 -2 32 4 32 17 0 28 18 15 107 -78 56 -60 99 -96 117
-101 97 -24 266 -27 266 -5 0 4 -28 32 -63 61 -61 52 -155 148 -144 148 3 0
34 -16 69 -36z m263 -33 c26 -21 44 -44 45 -55 0 -5 -10 -1 -22 10 -23 18 -23
18 -5 -1 10 -11 25 -20 35 -20 19 0 76 -99 87 -150 6 -28 6 -29 -9 -11 -21 26
-28 16 -11 -14 27 -48 38 -75 36 -91 -2 -22 55 -88 188 -219 59 -58 134 -139
168 -180 70 -87 137 -151 183 -175 28 -15 55 -16 215 -10 l183 8 88 -84 c90
-84 145 -145 167 -183 8 -15 12 -105 12 -316 0 -233 3 -300 14 -320 18 -34 70
-89 365 -394 138 -142 254 -263 258 -270 11 -17 10 -54 -3 -61 -5 -4 -58 41
-117 99 -59 58 -114 111 -123 118 -9 7 -54 56 -100 108 -46 52 -141 156 -212
230 -71 74 -135 144 -142 155 -10 16 -11 81 -5 305 4 157 4 294 0 305 -4 11
-54 68 -111 128 l-104 107 -162 0 c-96 0 -164 -4 -168 -10 -13 -21 -76 29
-187 151 -64 69 -165 168 -224 221 -60 53 -141 125 -180 160 -40 35 -77 73
-83 86 -14 29 -14 129 0 137 7 5 9 -3 7 -21 -2 -22 4 -34 26 -51 38 -29 42
-29 22 2 -9 13 -16 31 -16 40 0 8 -4 15 -10 15 -5 0 -12 17 -16 38 -12 67 -40
99 -119 137 -73 35 -104 60 -91 72 3 4 19 -5 34 -18 23 -22 41 -32 97 -58 6
-2 1 7 -11 20 -31 35 -40 54 -23 44 8 -4 1 5 -16 19 -29 26 -29 27 -5 20 14
-3 34 -14 45 -23z m3826 12 c-7 -13 -5 -20 7 -29 20 -14 10 -29 -13 -20 -22 8
-29 34 -15 51 17 21 33 19 21 -2z m-3135 -37 c15 -12 17 -18 8 -33 -15 -25
-107 -26 -112 -2 -8 41 63 65 104 35z m5085 -3 c-12 -22 -101 -106 -101 -96 0
7 101 113 108 113 1 0 -2 -8 -7 -17z m-4955 -4 c9 -15 -11 -33 -30 -26 -9 4
-13 13 -10 22 7 17 30 20 40 4z m134 -11 c0 -21 -4 -23 -49 -20 -66 5 -78 30
-15 30 25 0 48 3 52 6 9 10 12 7 12 -16z m87 12 c27 0 34 -4 31 -17 -2 -14
-14 -18 -45 -19 -36 -1 -42 2 -46 23 -3 18 -1 23 10 19 8 -3 30 -6 50 -6z
m979 -106 c47 -50 47 -100 1 -147 -28 -27 -35 -44 -41 -91 -10 -87 -20 -90
-27 -8 -4 60 -9 75 -28 88 -60 43 -76 90 -47 143 33 59 95 66 142 15z m1789
-9 c39 -38 35 -94 -10 -134 -19 -17 -35 -36 -36 -43 0 -7 -5 -3 -11 10 -6 12
-14 22 -18 22 -5 0 -22 13 -39 29 -41 38 -40 71 2 110 40 38 79 40 112 6z
m-2902 5 c45 0 47 -1 47 -27 0 -26 -3 -28 -46 -31 -25 -2 -52 2 -60 9 -11 9
-14 9 -14 0 0 -8 -24 -11 -77 -9 -76 3 -78 4 -81 30 -3 25 0 27 40 31 24 3 66
3 93 1 28 -2 71 -4 98 -4z m154 4 c16 -4 21 -12 19 -32 -3 -24 -7 -26 -55 -26
-49 -1 -52 0 -48 21 2 13 0 23 -5 23 -5 0 -6 5 -3 10 7 11 57 13 92 4z m373
-18 c0 -14 -3 -27 -7 -29 -5 -3 -52 -8 -105 -12 l-98 -7 -1 29 -2 28 -4 -27
c-4 -27 -7 -28 -58 -28 -51 0 -53 1 -57 30 l-4 29 95 4 c260 8 241 10 241 -17z
m-772 -23 c2 -8 -5 -13 -17 -13 -12 0 -21 6 -21 16 0 18 31 15 38 -3z m2977
-45 c9 -30 16 -2119 7 -2183 -5 -36 -12 -51 -25 -53 -16 -3 -17 11 -18 180 -4
1357 -4 2019 -1 2046 5 37 26 43 37 10z m1970 2 c-10 -11 -20 -18 -23 -15 -7
6 18 35 31 35 5 0 2 -9 -8 -20z m-45 -30 c-6 -11 -16 -20 -22 -20 -6 0 -3 9 7
20 10 11 20 20 22 20 2 0 -1 -9 -7 -20z m43 -7 c-20 -7 -15 -31 5 -29 13 1 17
-6 15 -34 -2 -19 -3 -46 -4 -60 0 -19 -2 -21 -7 -8 -6 13 -22 -1 -77 -63 -122
-139 -127 -144 -120 -131 3 6 2 12 -2 12 -10 0 -568 -553 -645 -640 -32 -36
-58 -58 -58 -49 0 34 68 115 243 287 243 240 529 537 566 589 17 24 25 43 19
45 -7 3 -5 15 6 35 17 33 56 67 65 56 3 -3 0 -8 -6 -10z m-3118 -22 c14 -29
15 -29 45 -15 57 29 130 -15 130 -77 0 -50 -51 -75 -111 -54 -23 8 -48 15 -55
15 -12 0 -14 -158 -14 -998 0 -550 -3 -1034 -7 -1076 -5 -63 -9 -76 -22 -74
-11 2 -18 19 -23 53 -3 28 -7 508 -7 1068 -1 1003 -1 1019 -21 1044 -29 37
-26 79 9 114 37 37 57 37 76 0z m-1401 3 c9 -8 16 -11 16 -5 0 7 23 11 55 11
53 0 55 -1 55 -27 l0 -28 -237 -2 c-251 -3 -253 -2 -253 45 0 22 0 22 174 22
145 0 177 -3 190 -16z m2092 -38 c19 -19 34 -42 34 -53 0 -29 -29 -64 -66 -79
-31 -13 -38 -12 -73 6 -22 11 -42 29 -46 40 -9 27 22 88 54 105 40 22 60 18
97 -19z m-2527 -45 c12 -21 12 -39 9 -246 l-3 -140 -25 0 -25 0 1 176 c1 177
6 229 24 229 5 0 14 -9 19 -19z m3823 -195 c2 -86 -1 -128 -11 -145 -10 -17
-16 -20 -24 -12 -14 14 -16 254 -3 316 l8 40 14 -39 c8 -22 15 -89 16 -160z
m-3652 144 c0 -23 -5 -31 -24 -36 -43 -10 -61 -1 -64 34 -3 32 -3 32 42 32 44
0 46 -1 46 -30z m749 -16 c28 -36 27 -45 -15 -73 -33 -23 -38 -24 -63 -10 -31
18 -38 51 -17 85 23 33 68 33 95 -2z m4016 -32 c-15 -16 -16 -15 -4 12 7 15
15 23 17 16 3 -7 -3 -19 -13 -28z m-5509 -9 c16 -16 37 -40 47 -55 9 -15 37
-52 62 -82 25 -31 43 -56 40 -56 -6 0 -49 37 -133 115 -43 39 -53 45 -47 27 6
-22 5 -22 -14 -10 -24 15 -26 24 -7 31 9 3 12 15 9 31 -7 33 6 33 43 -1z
m5562 3 c1 -19 -14 -41 -63 -87 -35 -34 -63 -67 -62 -73 1 -5 -3 -10 -10 -11
-6 0 -21 -13 -33 -28 -12 -15 -25 -26 -27 -23 -3 3 21 38 53 78 33 40 75 94
94 120 19 26 37 48 40 48 3 0 7 -11 8 -24z m642 -6 c-6 -12 -16 -17 -26 -13
-12 4 -11 8 8 18 13 7 24 13 26 14 1 1 -2 -8 -8 -19z m-1175 -6 c27 -28 12
-39 -51 -38 -32 1 -122 4 -199 5 -77 2 -179 0 -227 -4 l-88 -8 0 25 c0 24 3
25 68 28 37 2 160 5 274 6 178 1 209 -1 223 -14z m-2122 -131 c73 -69 147
-135 165 -145 17 -11 32 -26 32 -32 0 -7 -33 -41 -72 -77 -40 -35 -101 -96
-136 -136 -34 -39 -76 -82 -92 -93 l-30 -22 -150 149 c-83 81 -149 153 -148
160 3 10 287 320 296 322 2 1 63 -56 135 -126z m3490 105 c-86 -110 -229 -285
-237 -290 -19 -13 2 -21 38 -14 20 4 55 25 83 49 139 124 154 100 25 -37 l-47
-50 3 -108 3 -108 -141 0 c-104 0 -142 3 -145 13 -2 6 -5 65 -7 130 l-3 117
31 0 c33 0 52 16 77 65 19 38 60 81 112 120 22 16 46 35 53 42 22 22 72 44 82
38 6 -4 13 1 16 9 3 9 12 16 19 16 7 0 18 7 25 15 15 18 27 11 13 -7z m-5110
-17 c10 -38 -25 -55 -90 -45 -30 4 -43 11 -44 23 -1 14 -2 13 -6 -1 -4 -17
-27 -24 -63 -19 -36 4 -339 0 -382 -6 -46 -5 -48 -4 -48 19 0 47 5 48 326 48
286 0 302 -1 307 -19z m2427 -24 c0 -13 -4 -27 -10 -33 -5 -5 -11 -47 -13 -94
-3 -76 -3 -72 -5 33 -2 98 0 117 13 117 9 0 15 -9 15 -23z m1820 -12 c-18 -19
-36 -33 -38 -30 -4 4 58 65 67 65 3 0 -10 -16 -29 -35z m-6315 -5 c4 -6 10 -8
14 -5 5 2 24 -6 42 -20 19 -13 50 -33 69 -42 42 -22 135 -113 145 -142 5 -16
15 -21 41 -21 l35 0 -3 -127 -3 -127 -136 -2 -137 -1 2 113 1 113 -79 80 c-44
44 -77 83 -74 87 4 3 43 -25 88 -64 66 -57 89 -71 126 -77 25 -3 48 -4 51 -1
4 3 -33 45 -80 93 -85 88 -127 136 -127 147 0 10 18 7 25 -4z m4492 -67 c-3
-10 -5 -2 -5 17 0 19 2 27 5 18 2 -10 2 -26 0 -35z m-3990 -35 c14 -24 50 -68
78 -98 75 -79 108 -148 65 -137 -13 3 -20 0 -20 -9 0 -8 -3 -14 -8 -14 -7 0
-87 65 -130 108 -14 13 -32 24 -42 25 -18 1 -58 67 -41 67 5 0 16 16 25 35 10
20 22 33 27 29 5 -3 9 -2 8 3 -2 14 1 33 6 33 3 0 17 -19 32 -42z m6157 -13
c6 -37 3 -52 -14 -80 -11 -18 -24 -35 -29 -37 -5 -2 -48 -39 -96 -83 -48 -44
-94 -84 -102 -88 -30 -18 -23 2 18 46 22 25 55 64 71 87 l30 40 -26 -10 c-25
-9 -26 -8 -16 10 15 28 98 131 122 152 27 24 34 17 42 -37z m-4996 18 c3 -22
1 -23 -80 -23 l-83 1 38 19 c71 35 120 36 125 3z m132 -2 c0 -10 -6 -21 -13
-24 -19 -7 -71 4 -79 17 -5 7 -8 7 -8 -2 0 -7 -4 -10 -10 -7 -5 3 -10 13 -10
21 0 11 14 14 60 14 52 0 60 -2 60 -19z m215 2 c-27 -8 -58 -19 -67 -24 -10
-5 -43 -9 -73 -9 -52 0 -55 1 -55 25 l0 25 123 -1 122 0 -50 -16z m2811 -83
c89 -92 167 -190 159 -198 -2 -3 -11 1 -19 7 -12 10 -14 9 -10 -6 6 -23 -7
-42 -32 -47 -11 -2 -38 -12 -60 -21 -57 -24 -230 -30 -272 -9 -18 8 -32 18
-32 20 0 3 6 2 13 -2 7 -4 9 -3 4 2 -5 5 -10 7 -12 4 -5 -7 -75 61 -75 73 0 4
42 51 93 104 50 52 106 110 122 128 17 18 31 33 32 34 1 1 41 -39 89 -89z
m744 72 c0 -4 -13 -23 -28 -42 -16 -19 -43 -60 -60 -91 -19 -34 -101 -127
-216 -245 -163 -166 -204 -216 -235 -289 -2 -5 3 -4 11 3 13 11 17 9 22 -13
12 -46 -19 -89 -153 -215 -73 -69 -169 -172 -214 -229 -45 -57 -101 -128 -125
-158 l-42 -53 72 0 c142 -1 380 -9 384 -13 3 -2 1 -116 -3 -253 l-8 -249 -236
-3 -236 -2 -7 87 c-3 49 -7 174 -8 278 l-2 191 29 42 c26 36 101 130 231 289
19 24 65 67 102 96 77 62 192 189 176 194 -15 5 -1 81 22 125 9 18 70 87 135
152 65 66 156 167 201 225 103 130 151 181 172 181 9 0 16 -3 16 -8z m-3199
-25 c38 -27 248 -220 251 -230 2 -7 2 -69 0 -139 l-3 -128 -240 0 -239 0 -2
165 c-1 91 -3 204 -3 253 l0 87 80 6 c90 6 133 2 156 -14z m4337 -111 c-78
-71 -156 -136 -162 -136 -4 0 10 21 31 46 45 55 121 116 135 108 6 -4 5 -11
-4 -18z m522 -46 c0 -5 -2 -10 -4 -10 -3 0 -8 5 -11 10 -3 6 -1 10 4 10 6 0
11 -4 11 -10z m-494 -42 c-5 -21 -116 -108 -116 -92 0 10 113 121 119 118 2
-2 1 -13 -3 -26z m-2819 -65 c-3 -10 -5 -2 -5 17 0 19 2 27 5 18 2 -10 2 -26
0 -35z m-3950 -19 c9 -24 -14 -64 -37 -64 -52 0 -81 47 -42 69 26 16 72 13 79
-5z m7291 4 c19 -19 14 -36 -14 -55 -26 -17 -27 -16 -51 11 -25 30 -22 41 12
49 34 8 41 7 53 -5z m-2658 -58 c0 -5 -2 -10 -4 -10 -3 0 -8 5 -11 10 -3 6 -1
10 4 10 6 0 11 -4 11 -10z m-2950 -131 c41 -55 61 -91 55 -97 -8 -8 -204 199
-205 216 0 17 119 -78 150 -119z m2981 94 c13 -16 12 -17 -3 -4 -10 7 -18 15
-18 17 0 8 8 3 21 -13z m-739 -125 c40 -43 36 -84 -12 -116 -39 -26 -83 -25
-126 3 -31 20 -32 63 -3 99 43 54 98 60 141 14z m-493 -24 c32 -41 27 -70 -19
-103 l-41 -29 -45 25 c-53 30 -60 42 -43 75 24 46 41 58 85 58 34 0 47 -5 63
-26z m-2439 -39 c11 -13 10 -14 -4 -9 -9 3 -16 10 -16 15 0 13 6 11 20 -6z
m-1000 -45 c21 -21 24 -37 14 -64 -14 -37 -94 -1 -94 42 0 42 47 55 80 22z
m1213 10 c38 0 55 -40 23 -54 -11 -5 -175 -10 -363 -10 l-343 -1 -5 -285 c-3
-157 -3 -313 1 -347 l6 -63 357 -2 356 -3 0 -25 0 -25 -387 -3 -388 -2 -2 390
c-1 214 -2 398 -2 408 -1 24 71 28 429 25 160 -2 303 -3 318 -3z m6142 -399
l0 -405 -30 -9 c-28 -8 -774 -2 -782 7 -12 12 -15 151 -8 459 l7 346 102 4
c55 1 238 3 406 2 l305 0 0 -404z m-6955 187 c0 -117 3 -300 7 -405 l6 -193
-31 0 c-30 0 -31 2 -36 53 -3 28 -7 211 -9 405 l-4 352 34 0 33 0 0 -212z
m1544 45 c-4 -93 -8 -170 -10 -172 -2 -2 -4 36 -4 86 l0 91 -52 6 c-116 14
-316 18 -336 7 -18 -9 -26 -5 -61 29 -46 46 -53 76 -18 83 16 3 13 5 -10 6
l-32 1 -4 -87 -3 -88 -2 103 -2 102 270 0 270 0 -6 -167z m3831 156 c4 -5 4
-129 0 -275 l-8 -264 -227 0 c-275 0 -319 5 -325 34 -2 11 -6 132 -9 269 l-5
247 284 0 c187 0 286 -4 290 -11z m-1165 -85 c48 -44 51 -74 11 -114 -41 -41
-73 -47 -111 -20 -45 32 -55 65 -32 102 18 28 68 68 84 68 5 0 26 -16 48 -36z
m1628 -3 c8 -5 18 -42 23 -87 5 -43 14 -95 19 -114 14 -51 12 -111 -6 -192
-16 -71 -40 -108 -70 -108 -15 0 -16 13 -10 113 3 61 9 176 12 255 4 78 9 142
13 142 3 0 12 -4 19 -9z m-163 -15 c32 -14 35 -19 35 -56 l0 -41 -42 3 -43 3
-3 53 c-3 57 0 60 53 38z m-5030 -33 c21 -6 30 -14 30 -28 0 -19 -8 -20 -215
-25 -260 -6 -260 -6 -260 29 0 15 3 31 8 36 9 9 395 -1 437 -12z m2630 -55
c69 -73 145 -164 145 -172 0 -4 -15 -19 -32 -34 -18 -14 -70 -62 -115 -106
-66 -63 -84 -76 -89 -62 -8 21 -133 141 -179 173 l-36 24 73 72 c40 40 91 95
113 123 46 60 48 60 120 -18z m-2138 -20 c-3 -8 -6 -5 -6 6 -1 11 2 17 5 13 3
-3 4 -12 1 -19z m-110 -90 c-2 -18 -4 -4 -4 32 0 36 2 50 4 33 2 -18 2 -48 0
-65z m354 82 c16 0 19 -8 19 -55 l0 -55 -88 0 c-103 0 -119 8 -128 67 l-6 42
63 4 c35 2 77 2 93 0 16 -1 37 -3 47 -3z m736 -59 c64 -36 106 -81 90 -97 -9
-9 -38 16 -32 27 8 12 -42 42 -56 33 -8 -4 -9 -3 -5 5 5 8 -6 18 -33 29 -22 9
-43 23 -45 30 -8 20 8 14 81 -27z m-2513 -52 c4 -44 4 -84 1 -89 -10 -16 -66
12 -76 37 -10 28 -12 93 -3 117 4 10 18 16 39 16 l32 0 7 -81z m6100 -37 c-1
-59 -2 -167 -3 -239 l-1 -133 -38 0 -38 0 -2 153 c-1 155 3 211 18 202 4 -3
10 7 13 21 3 18 -1 31 -14 42 -11 9 -19 22 -19 29 0 16 29 32 60 33 l25 0 -1
-108z m-5034 73 l0 -25 -164 0 c-100 0 -166 -4 -168 -10 -1 -5 -31 -13 -66
-16 l-63 -7 3 34 c3 34 3 34 61 37 45 2 59 0 63 -13 6 -14 8 -13 21 5 13 19
24 20 164 20 l149 0 0 -25z m1325 9 c33 -8 67 -15 75 -15 17 -1 18 -4 22 -93
3 -56 5 -60 48 -95 77 -62 171 -155 186 -183 18 -35 18 -109 0 -133 -13 -18
-15 -14 -25 36 -12 58 -43 96 -121 150 -19 13 -89 71 -155 129 -66 58 -138
119 -159 137 -42 34 -43 57 -4 73 33 13 66 12 133 -6z m-2213 -81 c10 -16 22
-52 27 -79 10 -53 -6 -100 -47 -137 -19 -17 -20 -17 -27 0 -24 57 -24 121 1
231 6 30 24 24 46 -15z m582 -39 c9 -3 16 -14 16 -24 0 -21 -36 -30 -116 -30
-51 0 -54 2 -54 24 0 23 4 25 53 29 28 2 60 4 69 5 9 1 23 -1 32 -4z m241 -15
c-8 -11 -105 -12 -105 -1 0 5 25 9 55 10 32 0 53 -3 50 -9z m658 4 c-13 -2
-33 -2 -45 0 -13 2 -3 4 22 4 25 0 35 -2 23 -4z m-1661 -117 c4 -6 8 -28 8
-48 0 -32 -4 -39 -27 -44 -37 -10 -57 7 -61 52 -3 28 1 42 14 51 19 14 54 8
66 -11z m1086 -6 c2 -12 -2 -27 -10 -31 -15 -10 -317 -12 -407 -3 -54 6 -61 9
-61 29 0 22 1 22 222 24 123 1 225 4 227 7 10 10 26 -4 29 -26z m5263 -110
c23 -13 26 -62 3 -84 -37 -37 -92 -8 -79 41 12 51 36 64 76 43z m-5637 -9 c14
-6 7 -11 -35 -24 -55 -18 -77 -12 -66 17 7 17 66 21 101 7z m-728 -39 c36 -23
21 -102 -20 -102 -28 0 -31 3 -40 46 -10 45 26 79 60 56z m3441 -32 c55 -33
54 -99 -2 -136 -35 -23 -87 -12 -119 27 -34 40 -33 61 5 98 36 36 70 40 116
11z m478 2 c23 -19 55 -62 55 -73 0 -4 -14 -21 -31 -38 -46 -46 -123 -37 -163
20 -42 61 81 141 139 91z m-2138 -48 c-3 -3 -12 -4 -19 -1 -8 3 -5 6 6 6 11 1
17 -2 13 -5z m3857 -104 c115 -113 115 -93 1 -172 -72 -51 -98 -52 -183 -9
-37 19 -77 31 -100 31 -51 0 -100 18 -112 40 -8 14 8 28 98 87 133 87 143 93
113 60 -14 -15 -21 -27 -16 -27 19 0 95 52 90 61 -4 5 -11 7 -16 4 -10 -7 -12
8 -2 18 14 15 30 3 127 -93z m-3891 3 c23 -7 22 -17 -5 -48 -39 -45 -177 -58
-192 -19 -3 9 -10 12 -16 9 -17 -11 -11 5 17 41 43 57 67 65 127 42 28 -10 59
-21 69 -25z m4750 0 c13 -3 17 -15 17 -58 0 -58 -1 -57 72 -69 29 -5 39 -3 47
11 9 17 12 15 43 -13 18 -17 45 -38 61 -47 33 -21 34 -37 2 -67 -19 -17 -23
-29 -18 -49 10 -45 22 -52 70 -45 l43 6 0 -66 0 -66 -50 0 c-38 0 -52 -4 -60
-19 -13 -25 -13 -61 0 -61 14 0 28 -40 23 -61 -7 -26 -28 -30 -78 -17 -41 11
-46 10 -87 -16 -24 -16 -53 -38 -65 -48 -20 -19 -21 -22 -7 -43 19 -29 10 -35
-48 -35 -32 0 -48 4 -47 13 1 17 17 54 18 41 1 -7 12 -9 29 -6 l27 5 -30 9
c-16 5 -40 14 -52 20 -21 10 -84 7 -129 -7 -21 -6 -21 -4 -17 39 5 40 3 46
-13 46 -11 -1 -30 -7 -44 -15 -14 -8 -28 -14 -32 -15 -14 0 -8 56 7 76 19 25
19 49 -2 80 -13 20 -23 25 -52 22 -30 -2 -36 1 -42 22 -4 14 -7 42 -8 63 l-1
37 43 0 c66 0 84 32 52 94 -8 15 -15 37 -15 47 0 28 45 52 100 53 27 1 55 7
62 14 6 6 30 12 51 12 l40 0 -6 59 c-3 33 -2 62 1 65 5 6 56 0 95 -11z m-5691
-50 c3 -47 4 -48 39 -51 23 -2 40 2 49 12 15 19 51 21 68 4 15 -15 16 -60 1
-75 -6 -6 -9 -23 -7 -39 3 -28 5 -29 61 -32 63 -3 72 -17 36 -53 -13 -13 -18
-27 -14 -40 7 -21 16 -23 63 -10 l32 10 0 -49 c0 -70 -6 -80 -51 -80 -28 0
-42 -6 -53 -22 -21 -30 -20 -45 4 -65 21 -18 27 -67 10 -93 -8 -13 -14 -13
-42 -2 -56 23 -62 23 -83 8 -16 -12 -18 -18 -9 -33 11 -18 8 -19 -54 -15 l-65
5 6 -45 6 -45 -53 1 -53 0 5 42 4 43 -42 11 c-24 6 -55 20 -70 31 -26 20 -28
20 -64 2 -37 -17 -38 -17 -52 2 -18 25 -18 49 1 65 19 16 19 33 0 70 -13 26
-21 30 -55 30 -47 0 -60 18 -60 84 l0 46 50 0 c60 0 79 22 57 67 -19 36 -31
103 -19 103 5 0 28 -7 52 -15 l42 -15 42 35 c32 26 53 35 80 35 33 0 36 2 36
29 0 16 -4 41 -9 54 -13 33 -7 37 55 37 l53 0 3 -47z m1146 -22 c39 -27 37
-40 -5 -58 -29 -11 -31 -11 -26 7 3 11 9 17 14 14 24 -15 4 13 -31 43 -22 19
-40 42 -40 51 0 12 6 10 28 -10 15 -13 42 -35 60 -47z m404 -7 c15 -3 29 -4
31 -2 1 2 23 -12 47 -31 25 -19 47 -36 49 -37 7 -5 -83 -94 -113 -112 l-31
-19 -83 69 c-89 75 -102 103 -59 133 21 15 73 15 159 -1z m4936 -39 c23 -20
42 -43 42 -50 0 -30 -77 -48 -98 -22 -6 7 -18 34 -27 61 -13 39 -14 50 -4 57
16 9 32 1 87 -46z m-7249 39 c25 -5 33 -13 41 -43 17 -62 17 -62 -57 -59 l-68
3 -3 40 c-5 56 19 72 87 59z m6964 -11 c8 -10 19 -31 23 -46 3 -16 20 -37 36
-47 16 -10 25 -20 20 -24 -5 -3 -15 1 -22 9 -9 11 -25 13 -65 9 -83 -10 -115
20 -84 79 22 41 64 50 92 20z m-6770 0 c-7 -2 -21 -2 -30 0 -10 3 -4 5 12 5
17 0 24 -2 18 -5z m1044 -15 c27 -25 29 -45 7 -76 -17 -25 -68 -30 -96 -8 -39
29 -6 106 44 106 12 0 32 -10 45 -22z m4737 -4 c25 -25 20 -72 -8 -85 -55 -25
-111 24 -88 76 9 20 19 25 46 25 19 0 42 -7 50 -16z m-2302 -56 c12 -22 17
-46 13 -58 -15 -47 -127 -69 -191 -39 -26 13 -29 20 -29 59 0 41 3 46 35 63
24 12 53 17 94 15 57 -3 60 -4 78 -40z m-3457 7 c0 -18 -8 -20 -78 -23 -71 -3
-78 -1 -75 15 4 20 48 32 113 29 33 -1 40 -5 40 -21z m3159 -157 c3 -35 2 -99
-2 -143 l-8 -80 -13 40 c-8 22 -16 91 -18 153 -5 112 -5 114 15 103 16 -8 22
-24 26 -73z m-3340 -4 c4 -14 4 -35 1 -45 -7 -21 -46 -41 -67 -35 -7 3 -25 7
-40 10 -23 5 -28 12 -28 35 0 42 25 57 96 60 26 1 33 -4 38 -25z m7176 -2 c58
-19 73 -40 49 -69 -11 -12 -26 -14 -76 -9 -78 8 -93 14 -93 35 0 25 29 61 48
60 9 0 42 -8 72 -17z m-3606 -237 c1 -160 -10 -209 -40 -184 -22 18 -20 316 2
348 16 22 17 22 27 5 6 -10 11 -86 11 -169z m-671 121 c44 -18 559 -543 563
-572 l2 -22 -306 -1 c-169 -1 -391 -4 -494 -8 -220 -7 -220 -7 -135 85 62 68
97 115 97 133 0 9 -63 11 -303 5 -167 -4 -380 -4 -475 0 l-172 7 0 29 0 29
530 -3 c521 -3 529 -3 539 17 5 11 14 77 20 146 6 69 13 133 17 142 10 28 68
34 117 13z m1359 -17 c34 -18 40 -50 46 -255 3 -112 9 -201 13 -198 5 3 9 0 9
-6 0 -8 6 -8 20 0 11 6 20 7 20 3 0 -4 5 -2 12 5 7 7 21 12 32 12 19 0 19 0 0
21 -19 22 -19 22 2 11 11 -6 43 -31 70 -55 27 -24 59 -49 72 -56 63 -33 -18
-68 -133 -56 -38 4 -235 7 -437 6 -247 -1 -369 2 -373 9 -6 10 57 79 422 459
l119 123 45 -7 c24 -4 52 -11 61 -16z m-2593 -41 c-24 -48 -89 -127 -195 -238
-40 -41 -107 -113 -150 -160 -42 -47 -109 -118 -147 -158 l-70 -73 149 -153
c287 -294 445 -468 442 -485 -3 -14 -23 -16 -168 -16 -198 0 -178 -10 -341
167 -62 68 -193 206 -291 307 l-178 184 87 96 c48 53 176 188 285 301 109 113
208 220 220 237 l23 33 178 0 177 0 -21 -42z m4191 -94 c69 -75 211 -224 316
-332 l191 -197 -323 -330 -323 -330 -153 2 c-84 1 -159 2 -165 2 -27 2 -11 38
33 81 26 25 87 92 137 150 139 161 383 410 402 410 18 0 -155 190 -393 429
-129 130 -172 187 -172 227 0 10 30 14 133 17 72 1 146 3 162 4 26 1 45 -15
155 -133z m-5760 101 c16 -8 36 -25 44 -37 39 -55 -1 -151 -72 -173 -38 -11
-99 35 -112 85 -14 51 -7 72 33 110 36 33 64 37 107 15z m6998 -10 c37 -31 48
-73 32 -120 -15 -46 -44 -65 -98 -65 -71 0 -112 57 -98 136 13 69 107 97 164
49z m-4493 -28 c48 -27 51 -46 10 -67 -25 -12 -98 -15 -439 -18 -225 -1 -413
1 -418 6 -5 5 -6 16 -3 25 6 13 27 15 153 14 81 -1 242 -1 359 1 221 2 212 1
251 47 18 21 40 19 87 -8z m2674 -8 c56 -41 49 -73 -20 -84 -70 -12 -108 34
-83 100 9 23 62 14 103 -16z m-129 -58 c0 -14 -40 -21 -125 -21 -85 0 -125 7
-125 21 0 5 56 9 125 9 69 0 125 -4 125 -9z m238 -167 c18 -5 22 -13 20 -33
l-3 -26 -470 0 c-258 0 -480 2 -492 4 -34 5 -28 28 10 37 17 4 77 10 132 14
126 9 772 12 803 4z m-5215 -191 c41 -49 89 -101 106 -117 17 -17 31 -38 31
-47 0 -19 -208 -242 -221 -237 -4 2 -62 56 -128 121 l-120 118 116 124 c64 69
122 125 129 125 7 0 46 -39 87 -87z m6999 -87 l70 -79 -96 -96 c-53 -53 -103
-106 -112 -119 -15 -22 -16 -22 -140 95 -68 65 -124 121 -124 124 0 3 52 61
117 128 l116 122 50 -48 c27 -26 81 -84 119 -127z m-5557 82 c15 -23 47 -66
71 -95 24 -30 44 -57 44 -62 0 -5 -33 -43 -74 -86 l-75 -78 -29 24 c-51 41
-147 124 -152 130 -4 5 176 206 186 209 1 0 14 -19 29 -42z m3962 -50 l94 -93
-86 -87 -86 -87 -67 71 c-37 38 -68 76 -70 83 -2 8 13 38 33 67 42 60 67 116
59 129 -3 5 3 9 12 9 9 0 59 -42 111 -92z m-3359 -29 c86 -85 101 -109 67
-109 -7 0 -37 -18 -66 -40 -29 -21 -57 -37 -62 -33 -5 3 -15 21 -23 39 -16 39
-8 66 27 84 19 11 18 13 -16 52 -22 26 -35 52 -35 70 0 15 3 28 8 28 4 0 49
-41 100 -91z m2551 21 c34 -38 75 -77 92 -87 36 -21 37 -33 2 -33 -18 0 -38
-13 -63 -40 -20 -22 -42 -40 -48 -40 -6 0 -13 34 -18 78 -4 42 -13 86 -20 97
-17 27 -29 95 -17 95 6 0 38 -31 72 -70z m436 -6 c41 -36 76 -73 80 -82 10
-26 -76 -132 -107 -132 -17 0 -38 69 -39 127 0 32 -4 79 -8 106 -4 26 -6 47
-4 47 3 0 38 -30 78 -66z m-3269 19 c17 -21 45 -60 63 -87 l34 -49 -54 -48
c-30 -26 -57 -48 -61 -49 -3 0 -24 23 -47 51 l-40 51 35 34 c28 28 32 38 24
54 -15 28 -13 80 3 80 8 0 27 -17 43 -37z m3029 -14 c28 -27 65 -59 83 -71 18
-11 32 -24 30 -29 -2 -4 -37 -33 -78 -63 -62 -47 -77 -54 -88 -42 -11 11 -11
19 2 51 9 21 16 46 16 55 0 10 6 21 13 23 8 4 9 8 2 14 -44 35 -73 113 -42
113 7 0 35 -23 62 -51z m-1515 -236 c0 -22 -18 -46 -81 -108 -45 -44 -113
-115 -151 -159 -38 -43 -123 -129 -188 -192 l-119 -114 -70 0 -71 0 0 33 c0
17 7 93 17 168 15 125 13 191 -5 188 -4 -1 -51 -1 -105 0 l-99 1 7 50 c9 64
-7 104 -47 121 -27 11 -28 14 -15 24 12 9 143 12 472 14 l455 2 0 -28z m957
17 c86 0 153 -4 153 -9 0 -5 -74 -11 -165 -13 -134 -2 -168 -6 -175 -18 -6 -8
-8 -21 -5 -28 9 -25 -14 -52 -46 -52 -17 0 -50 -11 -75 -25 -24 -13 -54 -27
-67 -30 -12 -3 -45 -10 -74 -16 -37 -8 -50 -15 -46 -25 3 -8 0 -14 -7 -14 -6
0 -9 -4 -6 -9 4 -5 1 -11 -6 -13 -7 -3 -8 -9 -3 -19 5 -8 10 -20 12 -28 1 -8
9 -18 17 -23 9 -5 21 -19 27 -31 15 -29 -93 76 -187 183 -41 47 -93 99 -114
115 -41 31 -49 49 -27 59 6 3 153 4 326 1 173 -3 383 -5 468 -5z m-1922 -136
c31 -20 32 -39 2 -58 -18 -13 -75 -15 -331 -15 -171 0 -346 -3 -391 -7 -78 -6
-83 -5 -99 17 -20 29 -20 34 -2 52 13 12 65 14 333 10 183 -2 337 0 363 5 68
15 98 14 125 -4z m2233 -6 c9 -12 299 -10 616 4 57 2 71 0 80 -14 8 -13 8 -23
0 -35 -9 -15 -26 -18 -90 -17 -44 0 -198 1 -344 2 -146 2 -282 0 -302 -4 -25
-4 -43 -2 -53 6 -15 13 -20 51 -8 63 11 12 90 7 101 -5z m1962 3 c0 -4 45 -53
100 -107 90 -90 98 -100 82 -111 -16 -10 -18 -8 -15 10 3 17 -15 40 -82 101
-77 70 -85 75 -81 50 6 -33 -17 -64 -48 -65 -29 0 -142 -73 -138 -88 1 -7 -2
-10 -8 -6 -11 7 4 45 18 45 20 0 120 102 137 139 16 37 35 54 35 32z m-6206
-50 c20 -26 65 -74 101 -106 l66 -58 -33 -19 c-18 -10 -63 -51 -99 -90 l-65
-70 -64 66 c-35 37 -83 79 -107 94 -24 15 -43 32 -43 37 0 6 37 42 81 80 45
38 88 80 96 92 9 13 19 23 23 23 5 0 24 -22 44 -49z m3075 0 c18 -12 30 -85
30 -195 1 -84 3 -90 31 -123 41 -47 39 -77 -8 -110 l-38 -28 4 -299 c4 -281 4
-300 -14 -313 -10 -7 -22 -13 -26 -13 -5 0 -8 142 -8 316 l2 316 -26 27 c-31
33 -34 75 -6 98 18 16 20 30 20 169 0 166 3 178 39 155z m-2731 -131 c22 -14
32 -27 32 -44 0 -21 -7 -27 -42 -36 -72 -20 -118 22 -84 75 20 30 50 32 94 5z
m1792 -34 c0 -16 -7 -26 -22 -30 -13 -3 -213 -6 -445 -6 -392 0 -423 1 -431
18 -22 42 -22 42 449 42 l449 0 0 -24z m2786 7 c32 -42 34 -42 -433 -37 -247
3 -452 9 -456 13 -4 4 7 15 25 24 29 14 85 17 442 17 378 0 410 -1 422 -17z
m1019 -33 c-11 -5 -33 -8 -50 -8 -29 1 -29 1 5 8 49 10 69 10 45 0z m-3098
-138 c19 -12 45 -81 38 -102 -8 -25 16 -79 48 -109 25 -22 25 -25 11 -52 -15
-30 -41 -48 -79 -55 -25 -4 -55 30 -55 65 0 11 -8 24 -17 30 -14 8 -15 12 -4
25 7 9 22 16 34 16 18 0 19 5 15 75 -3 41 -10 80 -16 88 -18 21 0 35 25 19z
m846 -61 c-2 -3 -18 10 -36 29 l-32 34 36 -30 c20 -16 34 -31 32 -33z m2167
15 c0 -61 17 -73 81 -57 45 12 52 11 69 -4 14 -13 17 -25 13 -47 -7 -37 9 -49
51 -37 17 5 37 9 43 9 22 0 14 -46 -13 -70 -19 -19 -24 -31 -19 -50 10 -37 25
-51 49 -44 62 17 57 21 54 -48 l-3 -63 -31 3 c-18 2 -36 -3 -43 -12 -10 -11
-18 -13 -31 -6 -26 14 -57 12 -63 -2 -3 -7 -6 14 -6 48 -1 73 -37 153 -84 186
-33 23 -124 36 -172 24 -35 -9 -115 -83 -131 -123 -21 -50 -18 -132 7 -173 19
-31 19 -33 3 -18 -22 19 -24 20 -65 8 -26 -8 -34 -6 -48 10 -9 11 -34 25 -56
32 -39 13 -40 15 -43 61 -4 65 41 142 63 107 10 -17 44 -11 55 9 18 34 12 68
-15 85 -25 16 -32 47 -19 80 8 21 69 21 107 1 22 -11 33 -12 52 -3 14 6 25 15
25 20 0 4 16 8 35 8 l35 0 0 55 0 55 50 0 50 0 0 -44z m-1706 28 c49 -19 -62
-34 -124 -17 l-25 7 25 7 c32 9 104 11 124 3z m-834 -85 c0 -9 18 -41 41 -73
48 -67 47 -95 -4 -126 -55 -34 -101 -20 -133 41 -15 30 -15 31 30 79 38 40 46
56 46 87 0 28 3 34 10 23 5 -8 10 -22 10 -31z m-3162 -404 c2 -367 1 -401 -15
-412 -13 -10 -107 -13 -390 -13 -358 0 -373 1 -383 19 -6 13 -10 160 -10 410
l0 390 38 4 c20 2 199 3 397 3 l360 -1 3 -400z m438 397 c6 -4 29 -35 52 -69
23 -34 78 -98 122 -143 44 -44 80 -85 80 -92 0 -7 -9 -24 -20 -38 l-20 -25 9
26 c7 20 5 33 -8 55 -21 34 -33 44 -84 67 -38 17 -38 17 -32 -3 5 -14 2 -20
-10 -20 -12 0 -14 -4 -5 -19 5 -11 9 -28 9 -38 -1 -16 -2 -16 -6 2 -3 11 -32
49 -65 85 -94 102 -131 176 -103 204 17 17 62 21 81 8z m1477 -22 c83 0 87 -1
77 -19 -5 -11 -11 -120 -12 -260 -1 -133 -5 -245 -8 -251 -3 -6 -104 -11 -245
-12 l-240 -3 -8 264 c-4 146 -5 271 -2 279 5 13 31 14 178 9 95 -4 212 -7 260
-7z m2417 -254 c0 -140 -3 -261 -6 -270 -5 -14 -35 -16 -234 -16 -172 0 -231
3 -237 13 -8 12 -21 515 -14 523 2 2 114 4 248 4 l243 0 0 -254z m2074 217
c23 -21 81 -68 129 -106 79 -61 102 -87 78 -87 -5 0 -39 -27 -76 -61 -37 -33
-72 -58 -78 -56 -26 8 -17 43 23 82 22 21 40 44 40 51 0 6 -40 54 -90 107 -77
81 -94 107 -72 107 3 0 23 -17 46 -37z m-6212 -35 c22 -6 56 -28 76 -48 47
-45 154 -171 125 -147 -12 11 -27 16 -34 11 -8 -4 -10 -3 -5 4 9 15 3 15 -28
1 -20 -9 -29 -9 -41 1 -17 14 -21 0 -4 -17 7 -7 2 -20 -17 -44 -43 -53 -137
-149 -147 -149 -5 0 28 39 72 86 45 48 81 91 81 96 0 15 -73 98 -87 98 -7 0
-13 6 -13 14 0 17 -39 48 -51 41 -9 -6 -21 43 -14 55 8 13 39 12 87 -2z m838
-83 c55 -37 76 -43 82 -23 5 14 149 -78 155 -98 2 -6 -22 -29 -54 -50 -31 -21
-71 -55 -88 -74 -16 -19 -46 -50 -65 -68 l-35 -33 -45 53 c-25 29 -73 80 -108
114 l-63 61 78 76 c43 42 81 77 84 77 4 0 30 -16 59 -35z m3893 -40 c47 -35
88 -68 91 -73 2 -4 -16 -24 -42 -42 -25 -19 -74 -69 -108 -112 l-62 -76 -21
24 c-12 14 -26 48 -32 76 -7 29 -17 58 -25 65 -17 17 -49 16 -64 -2 -18 -21
-33 -19 -102 17 l-60 31 38 33 c22 19 55 38 74 44 45 13 93 13 85 0 -3 -6 4
-10 16 -10 14 0 38 17 63 44 23 25 46 45 52 45 6 1 50 -28 97 -64z m-2386
-562 l-2 -483 89 88 c48 48 111 114 139 147 27 33 69 82 93 108 l43 48 61 -64
c33 -36 98 -103 143 -149 109 -111 197 -213 197 -227 0 -7 -32 -11 -99 -11
l-98 0 -101 110 -101 109 -68 -76 c-37 -42 -90 -93 -116 -115 -47 -36 -52 -38
-122 -38 -50 0 -75 -4 -78 -12 -3 -10 -8 -10 -17 -2 -9 9 -13 157 -16 595 -2
321 -1 578 2 572 9 -19 34 -16 35 5 1 9 5 -14 10 -52 4 -39 7 -287 6 -553z
m3687 567 c30 -58 34 -118 8 -149 l-17 -22 -29 30 c-24 25 -30 42 -34 90 -4
50 -1 62 17 80 11 11 23 21 25 21 2 0 16 -22 30 -50z m-2536 -102 c11 -15 17
-866 14 -1965 -2 -691 -2 -693 -22 -693 -20 0 -21 5 -20 122 1 68 -2 652 -6
1299 -4 647 -4 1192 0 1212 7 39 17 46 34 25z m-1499 -28 c1 11 4 11 14 2 9
-10 13 -282 15 -1275 2 -694 1 -1286 -3 -1315 -5 -42 -10 -53 -23 -50 -14 3
-18 21 -23 98 -9 130 -11 2499 -2 2541 7 33 7 33 14 9 4 -14 7 -18 8 -10z
m-1679 6 c0 -2 -8 -10 -17 -17 -16 -13 -17 -12 -4 4 13 16 21 21 21 13z m-30
-39 c0 -2 -12 -14 -27 -28 l-28 -24 24 28 c23 25 31 32 31 24z m2264 -48 c38
-45 35 -91 -7 -123 -40 -31 -45 -31 -75 -6 -23 19 -23 20 -5 52 10 18 22 36
27 39 5 4 6 15 1 25 -7 18 -8 17 -18 -3 -5 -13 -16 -23 -22 -23 -7 0 -20 -10
-28 -22 -14 -20 -16 -21 -16 -5 -1 25 25 74 46 86 34 20 70 12 97 -20z m491
-5 c52 -56 13 -129 -69 -129 -60 0 -96 26 -96 71 0 52 36 84 95 84 37 0 51 -5
70 -26z m126 -11 c12 -24 14 -204 16 -1128 1 -605 -1 -1159 -4 -1231 -5 -120
-7 -131 -24 -127 -19 5 -19 9 -23 1133 -2 516 6 1380 12 1380 5 0 15 -12 23
-27z m-2957 -28 c-14 -19 -29 -35 -31 -35 -5 0 7 18 36 53 26 31 23 18 -5 -18z
m5400 -1 c4 -9 5 -18 4 -19 -2 -1 -12 -7 -23 -13 -19 -11 -18 -11 8 -12 18 0
26 -4 21 -11 -4 -7 -23 -9 -48 -6 -22 3 -33 3 -23 0 9 -2 17 -9 17 -14 0 -5
16 -9 36 -9 24 0 34 -4 32 -12 -3 -8 -28 -14 -69 -15 -59 -2 -61 0 -19 13 13
5 13 6 0 14 -8 6 -27 10 -41 10 -15 0 -51 11 -80 24 l-54 25 75 0 c53 1 85 6
110 20 45 24 47 24 54 5z m-3430 -60 c3 -26 6 -635 6 -1353 l0 -1307 28 -10
c37 -14 68 -77 56 -112 -10 -27 -46 -57 -80 -66 -30 -9 -104 47 -104 78 0 12
12 45 26 72 l26 49 -7 1320 c-4 910 -3 1329 4 1348 16 43 37 34 45 -19z m3516
6 c0 -5 -12 -10 -27 -9 -25 0 -26 1 -8 9 27 12 35 12 35 0z m-2357 -66 c5 -32
6 -634 4 -1337 -3 -792 -1 -1277 5 -1277 5 0 18 -20 29 -45 18 -40 18 -47 5
-72 -23 -46 -52 -66 -82 -59 -37 10 -84 59 -84 89 0 29 45 87 67 87 12 0 14
160 13 1293 -1 710 -1 1313 -1 1339 1 38 4 46 19 44 13 -2 19 -17 25 -62z
m1980 24 c18 -13 17 -14 -2 -32 -20 -18 -22 -18 -66 5 -47 25 -54 43 -16 45
12 1 24 4 28 7 6 7 26 -2 56 -25z m854 -6 c15 -9 34 -58 26 -66 -3 -3 -12 -1
-20 5 -9 8 -17 8 -26 0 -8 -6 -17 -8 -20 -4 -11 11 -8 48 5 61 14 14 19 14 35
4z m-757 -102 c0 -5 -5 -10 -11 -10 -5 0 -7 5 -4 10 3 6 8 10 11 10 2 0 4 -4
4 -10z m-4778 -27 c69 -56 146 -133 133 -133 -7 0 -25 -13 -38 -30 -14 -16
-31 -30 -37 -30 -6 0 -22 -11 -35 -24 -20 -20 -23 -29 -15 -55 10 -37 -5 -41
-41 -12 -25 20 -22 37 20 91 36 47 35 64 -9 115 -47 55 -63 82 -55 95 11 18
43 11 77 -17z m208 1 c36 -24 100 -86 100 -97 0 -13 -50 -51 -78 -59 -18 -5
-21 -4 -13 6 9 10 2 26 -24 62 -44 62 -48 71 -41 89 7 19 26 19 56 -1z m410
-1 c-1 -18 -84 -121 -177 -221 -55 -59 -142 -154 -194 -212 -138 -154 -348
-363 -480 -478 -64 -55 -197 -185 -295 -289 -99 -103 -233 -242 -299 -308
l-120 -119 77 -6 c61 -4 81 -10 100 -28 14 -12 27 -20 30 -17 9 10 0 -62 -11
-82 -11 -21 -82 -33 -201 -33 -102 0 -125 -13 -251 -134 -63 -62 -122 -113
-130 -113 -8 0 -23 -4 -34 -9 -20 -7 -20 -7 -1 14 11 12 16 28 12 38 -3 9 -1
23 5 31 21 25 -1 27 -34 3 -18 -14 -1 9 41 56 40 45 84 97 98 117 28 41 43
133 44 259 l0 76 42 36 c60 52 70 48 99 -36 13 -39 29 -73 35 -75 22 -7 117
70 308 252 110 104 249 235 310 290 214 194 662 652 734 751 29 39 195 195
242 227 26 18 50 22 50 10z m599 -190 c-1 -177 -11 -252 -37 -261 -9 -3 -12
46 -12 217 l0 221 25 0 25 0 -1 -177z m2671 171 c-84 -8 -180 -8 -180 -1 0 4
48 6 108 5 59 -1 91 -3 72 -4z m-1491 -40 c55 -46 36 -109 -40 -136 -18 -7
-92 23 -104 41 -11 19 5 68 32 95 33 33 73 33 112 0z m1729 19 c-10 -2 -26 -2
-35 0 -10 3 -2 5 17 5 19 0 27 -2 18 -5z m-2271 -40 c53 -41 54 -81 3 -108
-47 -24 -85 -19 -114 16 -14 17 -26 35 -26 40 0 21 23 51 52 69 33 20 35 20
85 -17z m2376 30 c-7 -2 -19 -2 -25 0 -7 3 -2 5 12 5 14 0 19 -2 13 -5z m-170
-10 c-7 -2 -21 -2 -30 0 -10 3 -4 5 12 5 17 0 24 -2 18 -5z m60 0 c-7 -2 -19
-2 -25 0 -7 3 -2 5 12 5 14 0 19 -2 13 -5z m-3015 -18 c13 -4 22 -11 20 -16
-2 -5 -120 -129 -263 -275 -143 -147 -264 -274 -270 -283 -6 -10 -10 -208 -10
-539 0 -559 2 -541 -47 -542 -17 0 -18 32 -18 540 0 449 2 546 14 568 8 15 45
56 81 92 37 36 104 108 149 160 46 52 121 134 167 181 46 47 92 96 102 108 10
13 25 20 35 17 9 -2 27 -7 40 -11z m2810 8 c-21 -2 -55 -2 -75 0 -21 2 -4 4
37 4 41 0 58 -2 38 -4z m1301 -19 c52 -8 119 -15 150 -16 101 -3 -105 -16
-359 -23 -310 -8 -318 -9 -334 -46 l-13 -30 -11 39 c-15 51 -15 82 1 83 208
19 409 17 566 -7z m-1124 4 c47 -21 25 -28 -87 -26 -106 1 -109 2 -43 8 68 6
69 7 20 10 l-50 3 55 7 c30 4 60 7 67 8 7 1 24 -3 38 -10z m-756 -241 c135
-132 253 -249 261 -261 12 -17 16 -69 20 -256 l5 -236 160 -159 c200 -199 275
-285 275 -315 0 -21 -1 -22 -17 -7 -17 15 -18 1 -21 -282 l-4 -298 27 -27 c23
-23 26 -32 20 -64 -8 -45 -12 -50 -51 -58 -43 -8 -74 20 -81 74 -5 37 -3 44
14 48 19 5 21 17 27 252 3 136 9 279 12 317 6 67 5 72 -26 110 -37 48 -321
335 -331 335 -13 0 3 -185 18 -202 22 -24 21 -83 -2 -108 -24 -27 -41 -25 -71
5 -23 24 -25 31 -19 78 9 69 10 179 7 486 l-2 254 -62 61 c-35 34 -128 119
-208 191 -80 71 -173 158 -207 193 l-63 63 0 -58 c0 -106 -13 -252 -21 -247
-9 5 -13 337 -5 345 2 2 26 4 52 5 l48 1 245 -240z m1227 75 c-4 -93 -4 -236
0 -318 l7 -149 36 3 36 4 4 225 c2 156 7 232 16 249 11 22 13 23 20 7 12 -29
17 -281 7 -383 -5 -52 -9 -95 -8 -96 1 -1 46 2 101 6 111 9 518 -8 523 -22 2
-4 28 -8 58 -8 30 0 54 -4 54 -9 0 -5 10 -11 22 -14 52 -14 -1 -17 -178 -9
-104 5 -304 6 -444 1 -158 -5 -269 -4 -293 2 l-37 10 2 334 3 335 39 0 39 0
-7 -168z m1160 137 c-26 -6 -43 -6 -50 1 -7 7 6 10 40 9 l49 -1 -39 -9z m50
-63 c31 -24 7 -50 -50 -54 l-46 -3 0 35 c0 35 1 36 38 36 21 0 47 -6 58 -14z
m-6050 -4 c7 -5 8 -27 3 -67 -4 -33 -8 -156 -8 -273 l-1 -212 -257 2 -258 3
-3 278 -2 277 257 0 c142 0 263 -4 269 -8z m5207 -19 c18 -4 27 -12 27 -24 0
-17 -9 -19 -99 -19 -100 0 -118 6 -107 36 5 12 22 15 78 13 40 -1 85 -4 101
-6z m377 -13 c-36 -12 -70 -12 -70 0 0 6 21 10 48 9 38 -1 42 -2 22 -9z m-207
-7 c-13 -2 -35 -2 -50 0 -16 2 -5 4 22 4 28 0 40 -2 28 -4z m-6213 -153 l0
-130 -130 0 -130 0 0 130 0 130 130 0 130 0 0 -130z m6374 54 c17 -45 20 -45
-231 -42 -237 3 -238 3 -241 25 -3 21 0 22 95 26 291 9 371 7 377 -9z m125 7
c8 -5 11 -16 8 -25 -5 -12 -20 -16 -62 -16 -48 0 -55 3 -55 19 0 11 6 22 13
24 20 9 81 7 96 -2z m401 -6 c0 -20 -35 -37 -73 -33 -24 2 -33 8 -35 26 -3 21
0 22 52 22 43 0 56 -4 56 -15z m-286 -1 c29 -11 5 -24 -45 -24 -46 0 -59 7
-42 23 8 9 66 9 87 1z m-7005 -30 c27 -34 26 -40 -4 -69 -28 -29 -47 -31 -69
-9 -20 20 -20 53 0 82 20 29 48 28 73 -4z m6869 -83 c44 -1 52 -4 52 -20 0
-11 -8 -22 -18 -25 -34 -11 -590 -17 -597 -6 -3 5 -1 19 5 30 10 19 22 20 233
22 122 2 233 2 247 1 14 -1 49 -2 78 -2z m-2301 -43 c56 -62 53 -102 -8 -142
-44 -30 -43 -30 -101 23 -40 36 -38 81 5 115 40 32 77 33 104 4z m-1859 -2
c47 -24 65 -51 57 -85 -14 -67 -93 -91 -156 -48 -91 61 0 184 99 133z m-2720
-90 c4 -36 -15 -59 -29 -33 -6 9 -16 17 -24 17 -24 0 -29 22 -9 37 30 22 58
12 62 -21z m7286 15 c10 -11 16 -28 14 -38 -4 -25 -66 -55 -89 -43 -23 13 -35
66 -19 85 18 21 74 19 94 -4z m-565 -17 c51 -11 0 -23 -144 -34 -82 -6 -172
-10 -200 -8 -46 3 -50 5 -53 30 l-3 26 188 -4 c103 -2 199 -7 212 -10z m-2763
-107 c16 -16 -51 -95 -203 -242 l-173 -166 -132 128 c-73 70 -157 152 -185
180 -29 29 -53 47 -53 40 0 -18 -20 15 -20 34 0 13 18 17 101 22 128 8 147 0
229 -92 54 -61 65 -69 71 -54 4 11 42 52 85 92 l79 74 98 -6 c54 -3 101 -7
103 -10z m936 -184 l110 -112 -20 -28 c-11 -15 -65 -75 -121 -133 l-100 -105
-93 95 c-51 52 -108 112 -127 134 l-34 38 129 129 c109 109 130 126 138 111 5
-9 58 -67 118 -129z m-3208 96 c56 -37 65 -50 28 -40 -39 12 -92 40 -92 50 0
7 10 21 16 21 2 0 23 -14 48 -31z m844 -87 c67 -65 122 -126 122 -136 0 -9 -4
-15 -8 -12 -5 3 -15 -5 -22 -18 -12 -23 -56 -41 -65 -26 -2 4 -39 10 -82 14
-43 3 -99 13 -126 21 -26 8 -67 15 -91 16 -42 3 -44 4 -34 23 11 21 11 21 -10
2 -11 -10 -27 -16 -34 -14 -8 3 32 52 102 125 63 67 117 121 120 122 3 1 61
-52 128 -117z m683 -156 c10 -151 12 -936 3 -1149 -5 -101 -12 -164 -20 -175
-7 -9 -15 -14 -18 -11 -9 9 -10 1366 -1 1433 11 88 26 48 36 -98z m-2826 127
c-4 -10 -10 -70 -12 -134 l-6 -116 -133 1 -134 1 0 117 c0 82 -4 119 -12 125
-12 7 88 16 246 21 52 2 57 0 51 -15z m6683 -115 l-3 -133 -25 -4 c-14 -1 -74
0 -135 4 l-110 7 0 91 c-1 51 -4 106 -8 124 -8 40 -7 40 156 42 l128 1 -3
-132z m-5430 12 c60 -81 64 -98 34 -137 -26 -35 -42 -42 -42 -18 0 8 -24 49
-53 92 -60 88 -71 111 -54 110 38 -1 45 4 39 25 -5 22 -5 22 15 2 11 -10 38
-44 61 -74z m-1650 14 c31 -9 27 -31 -10 -54 -42 -25 -46 -25 -60 4 -21 47 6
67 70 50z m6046 -26 c22 -17 84 -72 136 -122 272 -259 508 -459 512 -434 1 7
2 47 2 88 l1 75 45 3 c28 1 58 -4 80 -15 33 -17 35 -22 41 -78 4 -33 7 -124 8
-201 1 -163 0 -165 -86 -137 -30 9 -111 18 -210 22 -89 4 -165 10 -169 14 -7
7 -25 119 -20 124 1 2 41 8 87 14 46 6 88 15 93 20 6 5 -35 55 -105 126 -63
65 -173 181 -244 258 -72 77 -157 169 -190 204 -33 35 -54 61 -47 57 6 -4 12
-2 12 3 0 17 9 13 54 -21z m1260 0 c18 -29 -4 -53 -50 -53 -38 0 -39 1 -42 38
l-3 38 42 -3 c27 -2 46 -9 53 -20z m-1929 -48 c10 -11 16 -20 13 -20 -3 0 -13
9 -23 20 -10 11 -16 20 -13 20 3 0 13 -9 23 -20z m57 -57 c28 -26 40 -21 16 8
-7 7 42 -40 110 -106 67 -66 122 -124 122 -128 0 -5 9 -22 21 -38 11 -16 19
-35 16 -42 -2 -6 3 -21 12 -31 15 -18 15 -18 -5 -8 -12 7 -48 42 -80 79 -33
38 -89 101 -126 141 -82 90 -132 152 -122 152 4 0 21 -12 36 -27z m-2735 -116
c-2 -23 -3 -1 -3 48 0 50 1 68 3 42 2 -26 2 -67 0 -90z m2991 81 c4 1 7 -4 7
-10 0 -7 7 -13 15 -13 8 0 19 -10 26 -23 12 -25 31 -46 20 -22 -4 8 -1 6 6 -4
7 -11 27 -35 43 -55 l30 -35 -30 21 c-32 23 -141 134 -165 168 -11 15 -7 13
14 -5 15 -14 31 -24 34 -22z m-5099 -75 c-114 -118 -159 -154 -65 -52 59 64
157 159 165 159 2 0 -43 -48 -100 -107z m3348 42 c30 -34 39 -71 22 -91 -7 -8
-30 -24 -51 -35 -36 -18 -41 -19 -72 -4 -41 20 -56 50 -44 92 19 72 97 92 145
38z m-543 4 c14 -11 26 -28 26 -37 0 -13 -3 -12 -15 5 -17 24 -64 38 -95 28
-29 -9 -25 -19 16 -35 32 -13 35 -18 30 -42 -5 -24 -2 -28 17 -29 22 0 22 0
-2 -10 -30 -12 -53 -5 -91 28 -34 28 -33 51 3 91 26 28 75 29 111 1z m-947
-46 c-14 -14 -19 -15 -29 -4 -7 8 -8 11 -3 8 6 -3 17 -2 25 4 23 14 26 11 7
-8z m273 -138 c13 8 22 -161 18 -340 l-3 -160 -27 -3 c-25 -3 -28 0 -34 37 -5
31 -12 42 -33 50 l-26 9 27 1 c16 1 32 9 38 20 6 11 10 91 10 188 0 162 10
285 18 220 2 -15 7 -25 12 -22z m1799 -205 l-5 -115 -1 140 c-1 77 2 129 5
115 4 -14 5 -77 1 -140z m-847 69 c34 -40 86 -95 115 -123 47 -46 163 -193
163 -206 0 -3 -19 -27 -42 -54 l-43 -48 -53 49 -53 48 45 50 c43 48 56 78 38
89 -5 3 -31 -17 -57 -44 -27 -28 -52 -50 -55 -50 -6 0 -90 106 -90 114 0 2 18
26 40 51 44 51 48 63 24 72 -10 4 -32 -10 -63 -41 l-47 -46 -30 32 c-72 79
-70 69 -18 127 25 28 50 51 54 51 5 0 37 -32 72 -71z m-1371 -6 c41 -24 56
-66 35 -98 -9 -13 -30 -32 -46 -40 -28 -14 -33 -14 -70 5 -23 12 -44 28 -47
36 -10 27 25 84 60 99 40 18 34 18 68 -2z m-803 -30 c-21 -2 -57 -2 -80 0 -24
2 -7 4 37 4 44 0 63 -2 43 -4z m225 0 c-29 -2 -78 -2 -110 0 -32 2 -8 3 52 3
61 0 87 -1 58 -3z m2826 -55 c-1 -60 -2 -61 -10 -23 -11 55 -11 85 1 85 6 0
10 -27 9 -62z m-3204 42 c-16 -4 -57 -7 -90 -7 l-60 0 65 7 c36 4 76 7 90 7
22 1 21 0 -5 -7z m-365 -15 c-7 -9 -15 -13 -19 -10 -3 3 1 10 9 15 21 14 24
12 10 -5z m2503 -7 c-2 -17 10 -37 45 -74 l49 -51 -59 -48 c-32 -26 -64 -45
-71 -42 -6 2 -26 25 -44 49 -32 44 -32 45 -14 72 14 22 91 114 97 116 1 0 -1
-10 -3 -22z m-2336 -113 c-4 -77 -3 -126 3 -130 15 -9 12 -121 -5 -203 -13
-59 -13 -85 -4 -131 16 -85 10 -115 -24 -119 l-28 -3 7 148 c10 218 10 244 0
411 l-8 152 32 0 33 0 -6 -125z m4220 30 c94 -102 103 -115 81 -115 -8 0 -51
-39 -96 -86 -75 -79 -84 -85 -100 -72 -97 81 -162 144 -167 159 -5 15 15 43
82 114 48 52 93 94 100 95 6 0 51 -43 100 -95z m-4359 24 c4 -36 -19 -241 -26
-234 -8 8 -32 150 -32 190 0 43 24 89 43 82 7 -2 14 -19 15 -38z m740 34 c-10
-2 -26 -2 -35 0 -10 3 -2 5 17 5 19 0 27 -2 18 -5z m3956 -84 c-2 -4 1 -11 7
-15 8 -5 9 -3 4 7 -4 8 8 -2 28 -20 21 -19 37 -40 37 -45 0 -6 -7 -3 -14 7
-17 21 -30 22 -22 1 4 -10 -7 -4 -27 12 -51 45 -79 82 -82 110 -2 25 -1 25 36
-12 21 -20 36 -41 33 -45z m-3249 -234 c4 -125 4 -282 1 -350 -7 -114 -6 -124
11 -134 10 -5 25 -20 32 -34 11 -20 10 -29 -3 -55 -30 -57 -78 -67 -120 -25
-22 21 -26 33 -21 57 4 17 17 41 31 53 l24 22 0 356 c0 346 1 355 19 346 17
-10 19 -29 26 -236z m-970 216 c71 -7 62 -8 -80 -9 -144 0 -156 1 -120 13 22
7 58 11 80 8 22 -2 76 -8 120 -12z m1909 -100 c28 -29 33 -57 13 -82 -7 -8
-22 -28 -35 -44 l-23 -29 -27 34 c-14 19 -39 47 -54 62 l-28 26 30 22 c17 12
43 41 57 64 l27 41 7 -33 c4 -19 19 -46 33 -61z m262 4 c36 -44 36 -46 19 -66
-10 -11 -33 -29 -51 -40 l-32 -19 -41 36 c-23 21 -41 43 -41 50 0 15 80 84 97
84 6 0 28 -20 49 -45z m947 27 c-20 -3 -22 -6 -12 -25 9 -16 9 -22 0 -25 -15
-5 -14 -29 2 -35 9 -4 8 -8 -3 -16 -27 -20 -40 -12 -40 23 0 19 5 36 12 38 6
2 8 10 4 17 -5 7 -15 10 -23 7 -9 -4 -13 -1 -11 6 5 15 56 27 78 19 11 -4 8
-7 -7 -9z m1177 -23 c0 -6 -4 -7 -10 -4 -5 3 -10 11 -10 16 0 6 5 7 10 4 6 -3
10 -11 10 -16z m-4320 -39 l0 -30 -95 0 c-93 0 -95 1 -95 23 0 13 3 27 7 30 3
4 46 7 95 7 l88 0 0 -30z m400 0 l0 -30 -70 0 c-67 0 -70 1 -70 23 0 34 6 37
77 37 l63 0 0 -30z m443 -44 c24 -18 21 -65 -5 -93 -38 -41 -88 -20 -88 37 0
59 50 89 93 56z m1167 5 c0 -5 20 -31 45 -58 l44 -50 -47 -49 -47 -49 -42 46
c-42 45 -54 71 -31 67 6 -2 14 8 18 22 4 14 12 24 19 22 7 -1 10 2 6 7 -3 6 0
19 7 31 13 21 28 27 28 11z m312 -42 l49 -42 -47 -48 c-27 -27 -51 -49 -55
-49 -12 0 -79 71 -79 84 0 13 67 96 77 96 3 0 28 -19 55 -41z m-2998 25 c18
-7 22 -34 6 -34 -6 0 -10 -8 -8 -17 2 -14 -4 -18 -27 -18 -38 0 -44 26 -14 54
26 24 23 23 43 15z m5275 -169 c31 -38 69 -88 85 -110 l29 -40 -31 29 c-18 17
-32 36 -32 43 0 8 -4 12 -9 9 -14 -9 -193 173 -185 187 4 7 4 9 -1 5 -9 -9
-35 9 -35 24 0 6 7 5 15 -2 18 -15 20 0 3 21 -7 7 13 -11 45 -41 33 -30 84
-86 116 -125z m-3338 132 c18 5 19 0 19 -70 0 -59 -3 -76 -16 -81 -41 -16 -44
-9 -44 82 0 81 11 131 18 84 2 -14 9 -18 23 -15z m-1725 -95 c0 -59 5 -133 9
-164 8 -60 -2 -88 -31 -88 -19 0 -20 126 -1 133 9 3 9 7 0 18 -19 24 -27 107
-13 152 7 23 14 48 16 56 10 34 18 -8 20 -107z m2644 -17 c76 -56 76 -55 16
-114 l-52 -52 -52 41 c-29 23 -52 47 -52 54 0 13 77 106 87 106 3 0 27 -16 53
-35z m-1652 -52 c6 -41 -21 -44 -309 -41 -223 2 -271 6 -279 18 -5 8 -6 18 -3
24 4 5 -3 7 -15 4 -13 -4 -23 0 -26 8 -5 12 43 14 312 12 l317 -3 3 -22z
m-1099 -109 c12 -15 21 -35 21 -45 0 -28 -75 -27 -90 0 -14 27 -13 37 6 55 22
23 40 20 63 -10z m4398 6 c28 -16 31 -23 24 -42 -5 -13 -14 -22 -20 -20 -6 1
-11 -1 -11 -5 0 -13 -74 -12 -82 1 -15 22 -8 55 14 70 29 20 36 20 75 -4z
m-2972 -25 c0 -21 -7 -33 -27 -44 -36 -21 -55 -4 -50 44 4 35 6 36 41 33 33
-3 36 -6 36 -33z m-494 15 c5 0 9 -13 9 -29 l0 -30 -240 0 -240 0 0 24 c0 14
3 26 8 26 18 4 429 15 440 12 8 -2 18 -3 23 -3z m257 -22 l-3 -33 -113 -3
-113 -3 7 28 c4 15 12 31 18 35 6 4 55 8 109 8 l98 0 -3 -32z m-750 -7 c5 -31
-12 -41 -70 -41 l-48 0 0 35 0 36 58 -3 c51 -3 57 -5 60 -27z m4399 7 c17 -22
22 -47 12 -54 -6 -3 -13 3 -16 15 -6 25 -10 26 -31 5 -23 -24 -29 1 -6 27 20
22 28 24 41 7z m-4127 -148 c0 -5 -9 -10 -20 -10 -11 0 -20 5 -20 10 0 6 9 10
20 10 11 0 20 -4 20 -10z m3228 -48 c19 -25 14 -34 -8 -12 -11 11 -27 20 -35
20 -8 0 -15 5 -15 11 0 14 42 1 58 -19z"/>
<path d="M8030 8886 c0 -2 7 -7 16 -10 8 -3 12 -2 9 4 -6 10 -25 14 -25 6z"/>
<path d="M4390 8721 c0 -5 7 -11 15 -15 9 -3 15 0 15 9 0 8 -7 15 -15 15 -8 0
-15 -4 -15 -9z"/>
<path d="M5927 8723 c-11 -11 -8 -20 9 -27 23 -9 37 3 23 20 -13 15 -22 18
-32 7z"/>
<path d="M8357 8523 c-4 -3 -7 -11 -7 -17 0 -6 5 -5 12 2 6 6 9 14 7 17 -3 3
-9 2 -12 -2z"/>
<path d="M8304 8433 c-23 -31 -24 -34 -5 -18 22 19 46 55 38 55 -3 0 -17 -17
-33 -37z"/>
<path d="M8475 8310 c-4 -6 -1 -18 7 -27 7 -9 12 -18 11 -20 -2 -1 -3 -9 -2
-15 0 -7 4 -4 8 7 5 12 3 25 -6 33 -7 8 -11 18 -8 23 4 5 4 9 1 9 -3 0 -8 -5
-11 -10z"/>
<path d="M8069 8280 c-13 -10 -19 -19 -13 -20 6 0 19 9 29 20 23 26 14 26 -16
0z"/>
<path d="M1805 8270 c3 -5 8 -10 11 -10 2 0 4 5 4 10 0 6 -5 10 -11 10 -5 0
-7 -4 -4 -10z"/>
<path d="M4256 8233 c-15 -15 -4 -33 19 -33 14 0 25 4 25 10 0 12 -35 31 -44
23z"/>
<path d="M6010 8231 c0 -13 49 -43 60 -36 6 3 10 15 10 26 0 15 -7 19 -35 19
-19 0 -35 -4 -35 -9z"/>
<path d="M7729 7863 c-13 -16 -12 -17 4 -4 9 7 17 15 17 17 0 8 -8 3 -21 -13z"/>
<path d="M5136 7717 c-3 -13 -21 -44 -41 -69 l-35 -46 46 -56 c26 -31 48 -56
50 -56 3 0 25 19 49 41 31 29 51 40 65 36 15 -4 20 0 20 16 0 23 -118 157
-137 157 -6 0 -13 -10 -17 -23z"/>
<path d="M8468 7063 l-308 -3 -1 -23 c-6 -145 -8 -574 -4 -614 6 -51 7 -53 37
-50 l31 2 -2 158 c-2 173 7 323 20 310 10 -11 16 -412 6 -440 -7 -20 -4 -22
35 -28 24 -3 162 -5 308 -3 l265 3 3 55 c2 30 1 187 -3 348 l-7 292 -37 -2
c-20 -2 -174 -4 -343 -5z m110 -100 c3 -22 2 -22 -172 -25 l-176 -3 0 28 0 27
173 -2 c169 -3 172 -3 175 -25z m140 -101 c2 -7 -7 -16 -20 -21 -35 -13 -253
-22 -333 -14 -60 7 -70 11 -73 28 -3 20 1 21 209 20 155 -1 214 -4 217 -13z
m-41 -110 c11 -26 -21 -32 -188 -32 -143 0 -168 2 -173 16 -3 9 -4 20 -1 25 4
5 85 8 182 7 141 -1 176 -4 180 -16z m-243 -124 c3 -13 6 -26 6 -30 0 -5 -29
-8 -65 -8 -67 0 -74 5 -55 41 8 15 21 19 59 19 42 0 49 -3 55 -22z m216 -102
c0 -23 -3 -24 -92 -31 -51 -3 -127 -5 -168 -3 -69 3 -75 5 -78 25 -4 24 5 25
251 31 86 2 87 2 87 -22z"/>
<path d="M6082 7001 c-17 -11 7 -21 49 -21 34 0 39 15 7 24 -30 8 -40 7 -56
-3z"/>
<path d="M3160 6838 c0 -12 3 -18 7 -14 11 10 12 36 2 36 -5 0 -9 -10 -9 -22z"/>
<path d="M5388 6373 c6 -2 18 -2 25 0 6 3 1 5 -13 5 -14 0 -19 -2 -12 -5z"/>
<path d="M7924 6012 c-57 -42 -104 -99 -105 -130 -3 -51 3 -97 17 -123 16 -33
76 -86 120 -106 45 -22 96 -6 156 47 59 51 82 107 73 177 -5 45 -12 57 -51 93
-82 75 -146 88 -210 42z"/>
<path d="M2233 6014 c-56 -28 -111 -96 -118 -148 -14 -92 11 -145 91 -192 86
-50 186 -20 252 76 16 24 22 47 22 87 0 62 -14 95 -62 140 -56 54 -123 67
-185 37z"/>
<path d="M2756 6121 c-4 -5 3 -7 14 -4 23 6 26 13 6 13 -8 0 -17 -4 -20 -9z"/>
<path d="M1642 5698 c-17 -17 -15 -63 4 -78 22 -19 68 -1 72 29 7 43 -47 78
-76 49z"/>
<path d="M8621 5696 c-7 -8 -13 -27 -14 -43 -2 -26 1 -28 32 -28 46 0 68 31
45 63 -17 25 -46 29 -63 8z"/>
<path d="M8591 4944 c6 -8 18 -14 26 -14 20 0 8 16 -17 23 -17 4 -19 3 -9 -9z"/>
<path d="M6770 5195 c0 -2 10 -10 23 -16 20 -11 21 -11 8 4 -13 16 -31 23 -31
12z"/>
<path d="M1804 4313 l-281 -3 -6 -245 c-3 -134 -3 -286 0 -338 l6 -94 90 -7
c50 -3 197 -6 329 -6 l238 0 0 350 0 350 -47 -2 c-27 -2 -174 -4 -329 -5z
m106 -105 c0 -17 -10 -18 -139 -18 -77 0 -146 -3 -155 -6 -12 -5 -16 1 -16 24
0 17 4 32 10 34 5 2 75 -1 155 -6 131 -8 145 -11 145 -28z m112 -94 c3 -3 4
-14 1 -25 -5 -18 -16 -19 -194 -19 l-189 0 0 25 0 25 188 0 c104 0 191 -3 194
-6z m-417 -236 c8 -126 8 -229 -1 -237 -3 -3 -9 1 -14 9 -12 19 -13 350 -2
350 5 0 13 -55 17 -122z m428 103 c6 -6 9 -13 6 -15 -2 -2 -86 -7 -186 -11
l-183 -8 0 28 0 28 176 -6 c104 -3 181 -10 187 -16z m-138 -122 c11 -32 -9
-39 -116 -39 -79 0 -98 3 -103 16 -16 42 -11 44 103 44 103 0 110 -1 116 -21z
m110 -134 c0 -19 -8 -20 -167 -23 l-168 -2 0 25 0 25 168 -2 c159 -3 167 -4
167 -23z"/>
<path d="M2683 4314 c0 -9 18 -35 40 -57 23 -23 36 -35 31 -27 -16 27 -67 100
-69 100 -1 0 -2 -7 -2 -16z"/>
<path d="M5719 1123 c-13 -16 -12 -17 4 -4 9 7 17 15 17 17 0 8 -8 3 -21 -13z"/>
<path d="M5445 3598 c11 -6 29 -18 40 -27 14 -11 12 -7 -4 12 -14 15 -32 27
-40 27 -12 -1 -11 -3 4 -12z"/>
<path d="M6051 3177 c-8 -11 -4 -13 20 -9 22 3 27 7 18 13 -19 12 -25 11 -38
-4z"/>
<path d="M6120 3176 c0 -2 7 -7 16 -10 8 -3 12 -2 9 4 -6 10 -25 14 -25 6z"/>
<path d="M4228 3159 c-37 -21 -15 -49 37 -49 34 0 42 20 15 42 -25 21 -29 21
-52 7z"/>
<path d="M7247 2279 c7 -7 15 -10 18 -7 3 3 -2 9 -12 12 -14 6 -15 5 -6 -5z"/>
<path d="M3803 2157 c-13 -5 -23 -14 -23 -19 0 -13 63 -5 67 8 6 17 -19 23
-44 11z"/>
<path d="M3987 1271 c4 -4 21 -13 37 -20 25 -10 28 -10 17 2 -6 8 -23 17 -37
20 -14 2 -22 1 -17 -2z"/>
<path d="M6765 1480 c-4 -6 8 -10 29 -10 19 0 43 -3 53 -6 16 -5 16 -4 -1 10
-22 18 -71 21 -81 6z"/>
<path d="M2980 1450 c-19 -6 -9 -8 37 -9 34 -1 65 4 68 9 7 12 -68 12 -105 0z"/>
<path d="M3498 1483 c12 -2 22 -8 22 -13 0 -5 -10 -11 -22 -13 -18 -3 -16 -5
7 -6 24 -1 31 3 32 19 1 16 -4 20 -30 19 -24 -1 -26 -3 -9 -6z"/>
</g>
</svg>
